<svg width="20" height="15" viewBox="0 0 20 15" fill="none" xmlns="http://www.w3.org/2000/svg">
<path d="M0.113485 0.536006C0.0293446 0.697771 -0.00915527 0.879397 0.00212097 1.06139C0.0133972 1.24338 0.0740185 1.41886 0.177485 1.56901L9.17749 14.569C9.26952 14.7018 9.39237 14.8104 9.53553 14.8854C9.67869 14.9604 9.83788 14.9995 9.99949 14.9995C10.1611 14.9995 10.3203 14.9604 10.4634 14.8854C10.6066 14.8104 10.7295 14.7018 10.8215 14.569L19.8215 1.56901C19.926 1.41915 19.9874 1.24346 19.999 1.0611C20.0105 0.878744 19.9718 0.696714 19.887 0.534858C19.8022 0.373002 19.6746 0.237532 19.5181 0.143218C19.3616 0.0489047 19.1822 -0.000633163 18.9995 6.10981e-06L0.999485 6.10981e-06C0.816948 -2.39712e-05 0.637884 0.0499091 0.481703 0.144393C0.325521 0.238878 0.198183 0.374308 0.113485 0.536006ZM17.0905 2.00001L9.99949 12.243L2.90849 2.00001L17.0905 2.00001Z" fill="#394149"/>
</svg>
