<svg width="187" height="189" viewBox="0 0 187 189" fill="none" xmlns="http://www.w3.org/2000/svg">
<path d="M40.9062 88.5938H157.781C159.331 88.5938 160.817 89.216 161.913 90.3237C163.009 91.4313 163.625 92.9336 163.625 94.5C163.625 96.0664 163.009 97.5687 161.913 98.6764C160.817 99.784 159.331 100.406 157.781 100.406H40.9062C39.3564 100.406 37.87 99.784 36.7741 98.6764C35.6782 97.5687 35.0625 96.0664 35.0625 94.5C35.0625 92.9336 35.6782 91.4313 36.7741 90.3237C37.87 89.216 39.3564 88.5938 40.9062 88.5938Z" fill="black"/>
<path d="M43.3256 94.5L91.7936 143.475C92.8909 144.584 93.5074 146.088 93.5074 147.656C93.5074 149.225 92.8909 150.729 91.7936 151.838C90.6963 152.947 89.2081 153.57 87.6562 153.57C86.1044 153.57 84.6162 152.947 83.5189 151.838L30.9251 98.6816C30.3809 98.133 29.9491 97.4812 29.6545 96.7637C29.3599 96.0461 29.2083 95.2769 29.2083 94.5C29.2083 93.7231 29.3599 92.9539 29.6545 92.2363C29.9491 91.5188 30.3809 90.867 30.9251 90.3184L83.5189 37.1621C84.6162 36.0531 86.1044 35.43 87.6562 35.43C89.2081 35.43 90.6963 36.0531 91.7936 37.1621C92.8909 38.2712 93.5074 39.7753 93.5074 41.3437C93.5074 42.9122 92.8909 44.4163 91.7936 45.5254L43.3256 94.5Z" fill="black"/>
</svg>
