<svg width="37" height="36" viewBox="0 0 37 36" fill="none" xmlns="http://www.w3.org/2000/svg">
<rect x="0.969727" y="0.75" width="34.5" height="34.5" rx="17.25" stroke="#1ACED6" stroke-width="1.5"/>
<path d="M27.5295 8C26.8909 8 26.2632 8.25031 25.7815 8.73091L17.5126 16.9695L17.329 17.1531L17.2789 17.4143L16.7029 20.3346L16.4442 21.5594L17.6687 21.3008L20.5903 20.7251L20.8516 20.675L21.0352 20.4914L29.2774 12.2261C29.6226 11.8799 29.8576 11.4392 29.9527 10.9597C30.0478 10.4802 29.9988 9.98334 29.8119 9.53162C29.625 9.0799 29.3085 8.69358 28.9024 8.42132C28.4962 8.14906 28.0185 8.00305 27.5295 8.00167V8ZM27.5295 9.61869C27.7256 9.61869 27.9168 9.71882 28.1038 9.90488C28.4761 10.277 28.4761 10.6792 28.1038 11.0521L20.0168 19.1339L18.5811 19.4209L18.8691 17.9858L26.956 9.90238C27.1422 9.71631 27.3333 9.61619 27.5295 9.61619V9.61869ZM10 11.3125V28H26.6947V16.9962L25.0253 18.665V26.3312H11.6695V12.9812H19.339L21.0085 11.3125H10Z" fill="#1ACED6"/>
</svg>
