<svg width="20" height="25" viewBox="0 0 20 25" fill="none" xmlns="http://www.w3.org/2000/svg">
<path d="M13.7495 23.4413C13.7995 23.8579 13.6745 24.3023 13.387 24.5939C13.2714 24.7226 13.1341 24.8248 12.9829 24.8944C12.8317 24.9641 12.6696 25 12.5059 25C12.3422 25 12.1801 24.9641 12.0289 24.8944C11.8777 24.8248 11.7404 24.7226 11.6248 24.5939L6.61297 19.0252C6.47666 18.8771 6.37301 18.696 6.31013 18.4961C6.24726 18.2961 6.22685 18.0827 6.25052 17.8726V10.7624L0.263848 2.24969C0.0608864 1.96019 -0.030694 1.5932 0.00911818 1.2289C0.0489303 0.864607 0.216898 0.532631 0.476319 0.305514C0.713786 0.111096 0.976249 0 1.25121 0H18.7488C19.0238 0 19.2862 0.111096 19.5237 0.305514C19.7831 0.532631 19.9511 0.864607 19.9909 1.2289C20.0307 1.5932 19.9391 1.96019 19.7362 2.24969L13.7495 10.7624V23.4413ZM3.80086 2.7774L8.75017 9.80422V17.4699L11.2498 20.2473V9.79034L16.1991 2.7774H3.80086Z" fill="#1ACED6"/>
</svg>
