<svg width="26" height="26" viewBox="0 0 26 26" fill="none" xmlns="http://www.w3.org/2000/svg">
<path d="M18 14.25H15.5C15.5 14.913 15.2366 15.5489 14.7678 16.0178C14.2989 16.4866 13.663 16.75 13 16.75C12.337 16.75 11.7011 16.4866 11.2322 16.0178C10.7634 15.5489 10.5 14.913 10.5 14.25H8C8 15.5761 8.52678 16.8479 9.46447 17.7855C10.4021 18.7232 11.6739 19.25 13 19.25C14.3261 19.25 15.5979 18.7232 16.5355 17.7855C17.4732 16.8479 18 15.5761 18 14.25ZM10.5 10.5C10.5 10.8315 10.3683 11.1495 10.1339 11.3839C9.89946 11.6183 9.58152 11.75 9.25 11.75C8.91848 11.75 8.60054 11.6183 8.36612 11.3839C8.1317 11.1495 8 10.8315 8 10.5C8 10.1685 8.1317 9.85054 8.36612 9.61612C8.60054 9.3817 8.91848 9.25 9.25 9.25C9.58152 9.25 9.89946 9.3817 10.1339 9.61612C10.3683 9.85054 10.5 10.1685 10.5 10.5ZM16.75 11.75C17.0815 11.75 17.3995 11.6183 17.6339 11.3839C17.8683 11.1495 18 10.8315 18 10.5C18 10.1685 17.8683 9.85054 17.6339 9.61612C17.3995 9.3817 17.0815 9.25 16.75 9.25C16.4185 9.25 16.1005 9.3817 15.8661 9.61612C15.6317 9.85054 15.5 10.1685 15.5 10.5C15.5 10.8315 15.6317 11.1495 15.8661 11.3839C16.1005 11.6183 16.4185 11.75 16.75 11.75Z" fill="#1ACED6"/>
<path fill-rule="evenodd" clip-rule="evenodd" d="M25.5 13C25.5 19.9037 19.9037 25.5 13 25.5C6.09625 25.5 0.5 19.9037 0.5 13C0.5 6.09625 6.09625 0.5 13 0.5C19.9037 0.5 25.5 6.09625 25.5 13ZM23 13C23 15.6522 21.9464 18.1957 20.0711 20.0711C18.1957 21.9464 15.6522 23 13 23C10.3478 23 7.8043 21.9464 5.92893 20.0711C4.05357 18.1957 3 15.6522 3 13C3 10.3478 4.05357 7.8043 5.92893 5.92893C7.8043 4.05357 10.3478 3 13 3C15.6522 3 18.1957 4.05357 20.0711 5.92893C21.9464 7.8043 23 10.3478 23 13Z" fill="#1ACED6"/>
</svg>
