<svg width="38" height="38" viewBox="0 0 38 38" fill="none" xmlns="http://www.w3.org/2000/svg">
<path d="M19 0.666504C16.5924 0.666504 14.2084 1.14071 11.9841 2.06205C9.75984 2.98338 7.73879 4.33381 6.03638 6.03621C2.59821 9.47438 0.666672 14.1375 0.666672 18.9998C0.666672 23.8621 2.59821 28.5253 6.03638 31.9635C7.73879 33.6659 9.75984 35.0163 11.9841 35.9376C14.2084 36.859 16.5924 37.3332 19 37.3332C23.8623 37.3332 28.5255 35.4016 31.9636 31.9635C35.4018 28.5253 37.3333 23.8621 37.3333 18.9998C37.3333 16.5923 36.8591 14.2083 35.9378 11.984C35.0165 9.75967 33.666 7.73862 31.9636 6.03621C30.2612 4.33381 28.2402 2.98338 26.0159 2.06205C23.7916 1.14071 21.4076 0.666504 19 0.666504ZM9.96167 30.5132C10.75 28.8632 15.5533 27.2498 19 27.2498C22.4467 27.2498 27.25 28.8632 28.0383 30.5132C25.4705 32.5592 22.2833 33.6712 19 33.6665C15.59 33.6665 12.455 32.4932 9.96167 30.5132ZM30.66 27.8548C28.0383 24.6648 21.6767 23.5832 19 23.5832C16.3233 23.5832 9.96167 24.6648 7.34 27.8548C5.38968 25.315 4.33273 22.2021 4.33334 18.9998C4.33334 10.9148 10.915 4.33317 19 4.33317C27.085 4.33317 33.6667 10.9148 33.6667 18.9998C33.6667 22.3365 32.53 25.4165 30.66 27.8548ZM19 7.99984C15.4433 7.99984 12.5833 10.8598 12.5833 14.4165C12.5833 17.9732 15.4433 20.8332 19 20.8332C22.5567 20.8332 25.4167 17.9732 25.4167 14.4165C25.4167 10.8598 22.5567 7.99984 19 7.99984ZM19 17.1665C18.2707 17.1665 17.5712 16.8768 17.0555 16.361C16.5397 15.8453 16.25 15.1458 16.25 14.4165C16.25 13.6872 16.5397 12.9877 17.0555 12.472C17.5712 11.9562 18.2707 11.6665 19 11.6665C19.7294 11.6665 20.4288 11.9562 20.9445 12.472C21.4603 12.9877 21.75 13.6872 21.75 14.4165C21.75 15.1458 21.4603 15.8453 20.9445 16.361C20.4288 16.8768 19.7294 17.1665 19 17.1665Z" fill="#1ACED6"/>
</svg>
