<svg width="18" height="21" viewBox="0 0 18 21" fill="none" xmlns="http://www.w3.org/2000/svg">
<path d="M14.6134 9.92075H3.33898V7.88878H14.6134V9.92075ZM14.6134 5.37193H3.33898V3.33996H14.6134V5.37193ZM5.61387 16.0662L4.45261 16.5987L4.30781 15.3889L3.29135 14.663L4.30781 13.9371L4.45261 12.7272L5.56528 13.2597L6.67796 12.7272L6.82276 13.9371L7.83922 14.663L6.87134 15.3403L6.72654 16.5501L5.61387 16.0662ZM13.0654 13.5017H15.727L11.2268 18.0019V15.3403C11.2268 14.3238 12.0489 13.5017 13.0654 13.5017ZM16.0166 0.000983536H1.98433C0.871659 0.000983536 0 1.01744 0 2.27492V18.0496C0 19.308 0.919291 20.3235 1.98433 20.3235H11.2258L18 13.5493V2.22633C18 0.967906 17.0807 3.05176e-05 16.0166 3.05176e-05V0.000983536Z" fill="#242E39"/>
</svg>
