<svg width="41" height="32" viewBox="0 0 41 32" fill="none" xmlns="http://www.w3.org/2000/svg">
<path d="M21.9948 5.28571C22.8062 4.78571 23.3472 3.87857 23.3472 2.85714C23.3472 1.27857 22.0731 0 20.5 0C18.9269 0 17.6528 1.27857 17.6528 2.85714C17.6528 3.88571 18.1937 4.78571 19.0052 5.28571L14.9266 13.4714C14.2788 14.7714 12.599 15.1429 11.4672 14.2357L5.125 9.14286C5.4809 8.66429 5.69444 8.07143 5.69444 7.42857C5.69444 5.85 4.42031 4.57143 2.84722 4.57143C1.27413 4.57143 0 5.85 0 7.42857C0 9.00714 1.27413 10.2857 2.84722 10.2857H2.89705L6.15 28.2429C6.54149 30.4143 8.42778 32 10.6344 32H30.3656C32.5651 32 34.4514 30.4214 34.85 28.2429L38.1029 10.2857H38.1528C39.7259 10.2857 41 9.00714 41 7.42857C41 5.85 39.7259 4.57143 38.1528 4.57143C36.5797 4.57143 35.3056 5.85 35.3056 7.42857C35.3056 8.07143 35.5191 8.66429 35.875 9.14286L29.5328 14.2357C28.401 15.1429 26.7212 14.7714 26.0734 13.4714L21.9948 5.28571Z" fill="#F1AF2F"/>
<path d="M21.8423 17.6329V27.8147H20.3011V19.1741H20.2415L17.8054 20.765V19.2934L20.3459 17.6329H21.8423Z" fill="white"/>
</svg>
