<svg width="41" height="32" viewBox="0 0 41 32" fill="none" xmlns="http://www.w3.org/2000/svg">
<path d="M21.9948 5.28571C22.8062 4.78571 23.3472 3.87857 23.3472 2.85714C23.3472 1.27857 22.0731 0 20.5 0C18.9269 0 17.6528 1.27857 17.6528 2.85714C17.6528 3.88571 18.1937 4.78571 19.0052 5.28571L14.9266 13.4714C14.2788 14.7714 12.599 15.1429 11.4672 14.2357L5.125 9.14286C5.4809 8.66429 5.69444 8.07143 5.69444 7.42857C5.69444 5.85 4.42031 4.57143 2.84722 4.57143C1.27413 4.57143 0 5.85 0 7.42857C0 9.00714 1.27413 10.2857 2.84722 10.2857H2.89705L6.15 28.2429C6.54149 30.4143 8.42778 32 10.6344 32H30.3656C32.5651 32 34.4514 30.4214 34.85 28.2429L38.1029 10.2857H38.1528C39.7259 10.2857 41 9.00714 41 7.42857C41 5.85 39.7259 4.57143 38.1528 4.57143C36.5797 4.57143 35.3056 5.85 35.3056 7.42857C35.3056 8.07143 35.5191 8.66429 35.875 9.14286L29.5328 14.2357C28.401 15.1429 26.7212 14.7714 26.0734 13.4714L21.9948 5.28571Z" fill="#CDCDCD"/>
<path d="M16.9794 27.8147V26.7011L20.4247 23.1315C20.7926 22.7437 21.0959 22.4039 21.3345 22.1123C21.5765 21.8173 21.7571 21.5372 21.8764 21.2721C21.9957 21.0069 22.0554 20.7252 22.0554 20.4269C22.0554 20.0888 21.9759 19.7972 21.8168 19.5519C21.6577 19.3033 21.4406 19.1128 21.1655 18.9802C20.8904 18.8443 20.5805 18.7763 20.2358 18.7763C19.8712 18.7763 19.553 18.8509 19.2812 19.0001C19.0095 19.1492 18.8007 19.3597 18.6548 19.6315C18.509 19.9032 18.4361 20.2214 18.4361 20.586H16.9695C16.9695 19.9662 17.112 19.4243 17.397 18.9603C17.6821 18.4963 18.0732 18.1367 18.5703 17.8815C19.0675 17.6229 19.6326 17.4937 20.2656 17.4937C20.9053 17.4937 21.4688 17.6213 21.956 17.8765C22.4465 18.1284 22.8293 18.4731 23.1044 18.9106C23.3795 19.3448 23.517 19.8353 23.517 20.3822C23.517 20.76 23.4458 21.1296 23.3033 21.4908C23.1641 21.8521 22.9205 22.2548 22.5724 22.6989C22.2244 23.1397 21.7405 23.675 21.1207 24.3048L19.0973 26.4227V26.4972H23.6811V27.8147H16.9794Z" fill="white"/>
</svg>
