<svg width="41" height="32" viewBox="0 0 41 32" fill="none" xmlns="http://www.w3.org/2000/svg">
<path d="M21.9948 5.28571C22.8062 4.78571 23.3472 3.87857 23.3472 2.85714C23.3472 1.27857 22.0731 0 20.5 0C18.9269 0 17.6528 1.27857 17.6528 2.85714C17.6528 3.88571 18.1937 4.78571 19.0052 5.28571L14.9266 13.4714C14.2788 14.7714 12.599 15.1429 11.4672 14.2357L5.125 9.14286C5.4809 8.66429 5.69444 8.07143 5.69444 7.42857C5.69444 5.85 4.42031 4.57143 2.84722 4.57143C1.27413 4.57143 0 5.85 0 7.42857C0 9.00714 1.27413 10.2857 2.84722 10.2857H2.89705L6.15 28.2429C6.54149 30.4143 8.42778 32 10.6344 32H30.3656C32.5651 32 34.4514 30.4214 34.85 28.2429L38.1029 10.2857H38.1528C39.7259 10.2857 41 9.00714 41 7.42857C41 5.85 39.7259 4.57143 38.1528 4.57143C36.5797 4.57143 35.3056 5.85 35.3056 7.42857C35.3056 8.07143 35.5191 8.66429 35.875 9.14286L29.5328 14.2357C28.401 15.1429 26.7212 14.7714 26.0734 13.4714L21.9948 5.28571Z" fill="#D17642"/>
<path d="M20.5241 27.9539C19.8414 27.9539 19.2315 27.8362 18.6946 27.6009C18.161 27.3656 17.7384 27.0391 17.4268 26.6215C17.1186 26.2006 16.9529 25.7134 16.9297 25.1599H18.4908C18.5107 25.4615 18.6117 25.7233 18.794 25.9454C18.9796 26.1641 19.2216 26.3332 19.5199 26.4525C19.8182 26.5718 20.1496 26.6315 20.5142 26.6315C20.9152 26.6315 21.2699 26.5619 21.5781 26.4227C21.8897 26.2834 22.1333 26.0896 22.3089 25.841C22.4846 25.5891 22.5724 25.2991 22.5724 24.9709C22.5724 24.6296 22.4846 24.3296 22.3089 24.0711C22.1366 23.8093 21.883 23.6038 21.5483 23.4546C21.2169 23.3055 20.8158 23.2309 20.3452 23.2309H19.4851V21.978H20.3452C20.723 21.978 21.0545 21.9101 21.3395 21.7742C21.6278 21.6383 21.8532 21.4494 22.0156 21.2075C22.178 20.9622 22.2592 20.6755 22.2592 20.3474C22.2592 20.0325 22.188 19.7591 22.0455 19.5271C21.9063 19.2917 21.7074 19.1078 21.4489 18.9752C21.1937 18.8426 20.892 18.7763 20.544 18.7763C20.2126 18.7763 19.9027 18.8377 19.6143 18.9603C19.3293 19.0796 19.0973 19.252 18.9183 19.4773C18.7393 19.6994 18.6432 19.9662 18.63 20.2778H17.1435C17.16 19.7276 17.3224 19.2437 17.6307 18.8261C17.9422 18.4084 18.3532 18.082 18.8636 17.8467C19.3741 17.6113 19.9408 17.4937 20.5639 17.4937C21.2169 17.4937 21.7803 17.6213 22.2543 17.8765C22.7315 18.1284 23.0994 18.4648 23.358 18.8857C23.6198 19.3066 23.7491 19.7673 23.7457 20.2678C23.7491 20.8379 23.59 21.3218 23.2685 21.7195C22.9503 22.1173 22.526 22.3841 21.9957 22.52V22.5995C22.6719 22.7022 23.1955 22.9707 23.5668 23.4049C23.9413 23.8391 24.1269 24.3777 24.1236 25.0207C24.1269 25.5808 23.9711 26.0829 23.6562 26.5271C23.3447 26.9712 22.9188 27.3209 22.3786 27.5761C21.8383 27.828 21.2202 27.9539 20.5241 27.9539Z" fill="white"/>
</svg>
