<svg width="16" height="21" viewBox="0 0 16 21" fill="none" xmlns="http://www.w3.org/2000/svg">
<path d="M1.03698 20.3869C1.19875 20.471 1.38037 20.5095 1.56236 20.4982C1.74436 20.487 1.91984 20.4263 2.06998 20.3229L15.07 11.3229C15.2028 11.2308 15.3114 11.108 15.3864 10.9648C15.4613 10.8217 15.5005 10.6625 15.5005 10.5009C15.5005 10.3393 15.4613 10.1801 15.3864 10.0369C15.3114 9.89377 15.2028 9.77091 15.07 9.67888L2.06998 0.678882C1.92012 0.574336 1.74444 0.51294 1.56208 0.501387C1.37972 0.489834 1.19769 0.528567 1.03583 0.613363C0.873978 0.69816 0.738509 0.825765 0.644195 0.982267C0.549881 1.13877 0.500343 1.31816 0.500983 1.50088L0.500983 19.5009C0.500953 19.6834 0.550886 19.8625 0.64537 20.0187C0.739854 20.1748 0.875285 20.3022 1.03698 20.3869ZM2.50098 3.40988L12.744 10.5009L2.50098 17.5919L2.50098 3.40988Z" fill="#394149"/>
</svg>
