<svg width="15" height="11" viewBox="0 0 15 11" fill="none" xmlns="http://www.w3.org/2000/svg">
<path d="M3.4999 10.5C3.4999 10.6326 3.44722 10.7597 3.35345 10.8535C3.25968 10.9473 3.13251 11 2.9999 11C2.86729 11 2.74011 10.9473 2.64635 10.8535C2.55258 10.7597 2.4999 10.6326 2.4999 10.5V1.70695L1.3539 2.85395C1.30741 2.90044 1.25222 2.93732 1.19148 2.96248C1.13074 2.98764 1.06564 3.00059 0.999899 3.00059C0.934155 3.00059 0.869055 2.98764 0.808316 2.96248C0.747576 2.93732 0.692387 2.90044 0.645899 2.85395C0.599411 2.80747 0.562535 2.75228 0.537376 2.69154C0.512217 2.6308 0.499268 2.5657 0.499268 2.49995C0.499268 2.43421 0.512217 2.36911 0.537376 2.30837C0.562535 2.24763 0.599411 2.19244 0.645899 2.14595L2.6459 0.146954L2.6529 0.139954C2.74715 0.0491376 2.87325 -0.00110342 3.00412 1.839e-05C3.135 0.0011402 3.26022 0.0535352 3.3529 0.145954L5.3529 2.14595C5.39939 2.19238 5.43628 2.2475 5.46146 2.30818C5.48664 2.36886 5.49963 2.4339 5.49968 2.4996C5.49972 2.5653 5.48683 2.63036 5.46173 2.69108C5.43663 2.75179 5.39982 2.80697 5.3534 2.85345C5.30698 2.89994 5.25185 2.93683 5.19117 2.96202C5.1305 2.9872 5.06545 3.00019 4.99975 3.00023C4.93406 3.00028 4.86899 2.98738 4.80828 2.96229C4.74756 2.93719 4.69239 2.90038 4.6459 2.85395L3.4999 1.70695V10.5ZM6.9999 1.49995C6.9999 1.36735 7.05258 1.24017 7.14635 1.1464C7.24011 1.05263 7.36729 0.999954 7.4999 0.999954H14.4999C14.6325 0.999954 14.7597 1.05263 14.8535 1.1464C14.9472 1.24017 14.9999 1.36735 14.9999 1.49995C14.9999 1.63256 14.9472 1.75974 14.8535 1.85351C14.7597 1.94728 14.6325 1.99995 14.4999 1.99995H7.4999C7.36729 1.99995 7.24011 1.94728 7.14635 1.85351C7.05258 1.75974 6.9999 1.63256 6.9999 1.49995ZM7.4999 3.99995C7.36729 3.99995 7.24011 4.05263 7.14635 4.1464C7.05258 4.24017 6.9999 4.36735 6.9999 4.49995C6.9999 4.63256 7.05258 4.75974 7.14635 4.85351C7.24011 4.94728 7.36729 4.99995 7.4999 4.99995H12.4999C12.6325 4.99995 12.7597 4.94728 12.8535 4.85351C12.9472 4.75974 12.9999 4.63256 12.9999 4.49995C12.9999 4.36735 12.9472 4.24017 12.8535 4.1464C12.7597 4.05263 12.6325 3.99995 12.4999 3.99995H7.4999ZM7.4999 6.99995C7.36729 6.99995 7.24011 7.05263 7.14635 7.1464C7.05258 7.24017 6.9999 7.36735 6.9999 7.49995C6.9999 7.63256 7.05258 7.75974 7.14635 7.85351C7.24011 7.94728 7.36729 7.99995 7.4999 7.99995H10.4999C10.6325 7.99995 10.7597 7.94728 10.8535 7.85351C10.9472 7.75974 10.9999 7.63256 10.9999 7.49995C10.9999 7.36735 10.9472 7.24017 10.8535 7.1464C10.7597 7.05263 10.6325 6.99995 10.4999 6.99995H7.4999ZM7.4999 9.99995C7.36729 9.99995 7.24011 10.0526 7.14635 10.1464C7.05258 10.2402 6.9999 10.3673 6.9999 10.5C6.9999 10.6326 7.05258 10.7597 7.14635 10.8535C7.24011 10.9473 7.36729 11 7.4999 11H8.4999C8.63251 11 8.75968 10.9473 8.85345 10.8535C8.94722 10.7597 8.9999 10.6326 8.9999 10.5C8.9999 10.3673 8.94722 10.2402 8.85345 10.1464C8.75968 10.0526 8.63251 9.99995 8.4999 9.99995H7.4999Z" fill="#4D4D4D"/>
</svg>
