<svg width="15" height="11" viewBox="0 0 15 11" fill="none" xmlns="http://www.w3.org/2000/svg">
<path d="M3.4999 0.5C3.4999 0.367392 3.44722 0.240215 3.35345 0.146447C3.25968 0.0526785 3.13251 0 2.9999 0C2.86729 0 2.74011 0.0526785 2.64635 0.146447C2.55258 0.240215 2.4999 0.367392 2.4999 0.5V9.293L1.3539 8.146C1.26001 8.05211 1.13267 7.99937 0.999899 7.99937C0.867123 7.99937 0.739786 8.05211 0.645899 8.146C0.552013 8.23989 0.499268 8.36722 0.499268 8.5C0.499268 8.63278 0.552013 8.76011 0.645899 8.854L2.6459 10.853L2.6529 10.86C2.74678 10.9515 2.87302 11.0023 3.00413 11.0011C3.13525 11 3.26061 10.9471 3.3529 10.854L5.3529 8.854C5.39939 8.80758 5.43628 8.75245 5.46146 8.69177C5.48664 8.6311 5.49963 8.56605 5.49968 8.50035C5.49972 8.43466 5.48683 8.36959 5.46173 8.30888C5.43663 8.24816 5.39982 8.19299 5.3534 8.1465C5.30698 8.10001 5.25185 8.06312 5.19117 8.03794C5.13049 8.01275 5.06545 7.99977 4.99975 7.99972C4.93406 7.99968 4.86899 8.01257 4.80828 8.03767C4.74756 8.06277 4.69239 8.09958 4.6459 8.146L3.4999 9.293V0.5ZM6.9999 1.5C6.9999 1.36739 7.05258 1.24021 7.14635 1.14645C7.24011 1.05268 7.36729 1 7.4999 1H14.4999C14.6325 1 14.7597 1.05268 14.8535 1.14645C14.9472 1.24021 14.9999 1.36739 14.9999 1.5C14.9999 1.63261 14.9472 1.75979 14.8535 1.85355C14.7597 1.94732 14.6325 2 14.4999 2H7.4999C7.36729 2 7.24011 1.94732 7.14635 1.85355C7.05258 1.75979 6.9999 1.63261 6.9999 1.5ZM7.4999 4C7.36729 4 7.24011 4.05268 7.14635 4.14645C7.05258 4.24021 6.9999 4.36739 6.9999 4.5C6.9999 4.63261 7.05258 4.75979 7.14635 4.85355C7.24011 4.94732 7.36729 5 7.4999 5H12.4999C12.6325 5 12.7597 4.94732 12.8535 4.85355C12.9472 4.75979 12.9999 4.63261 12.9999 4.5C12.9999 4.36739 12.9472 4.24021 12.8535 4.14645C12.7597 4.05268 12.6325 4 12.4999 4H7.4999ZM7.4999 7C7.36729 7 7.24011 7.05268 7.14635 7.14645C7.05258 7.24021 6.9999 7.36739 6.9999 7.5C6.9999 7.63261 7.05258 7.75979 7.14635 7.85355C7.24011 7.94732 7.36729 8 7.4999 8H10.4999C10.6325 8 10.7597 7.94732 10.8535 7.85355C10.9472 7.75979 10.9999 7.63261 10.9999 7.5C10.9999 7.36739 10.9472 7.24021 10.8535 7.14645C10.7597 7.05268 10.6325 7 10.4999 7H7.4999ZM7.4999 10C7.36729 10 7.24011 10.0527 7.14635 10.1464C7.05258 10.2402 6.9999 10.3674 6.9999 10.5C6.9999 10.6326 7.05258 10.7598 7.14635 10.8536C7.24011 10.9473 7.36729 11 7.4999 11H8.4999C8.63251 11 8.75968 10.9473 8.85345 10.8536C8.94722 10.7598 8.9999 10.6326 8.9999 10.5C8.9999 10.3674 8.94722 10.2402 8.85345 10.1464C8.75968 10.0527 8.63251 10 8.4999 10H7.4999Z" fill="#4D4D4D"/>
</svg>
