<svg width="15" height="15" viewBox="0 0 15 15" fill="none" xmlns="http://www.w3.org/2000/svg">
<path d="M13.2714 0.838013H8.30861C7.9372 0.838092 7.58103 0.985698 7.31844 1.24837L1.08193 7.48488C0.819371 7.74752 0.671875 8.10368 0.671875 8.47505C0.671875 8.84642 0.819371 9.20258 1.08193 9.46522L6.04397 14.4273C6.30661 14.6898 6.66277 14.8373 7.03414 14.8373C7.40551 14.8373 7.76167 14.6898 8.02431 14.4273L14.2608 8.19074C14.5241 7.92885 14.6719 7.57241 14.6719 7.20128V2.23853C14.6719 1.86709 14.5243 1.51086 14.2617 1.24822C13.999 0.985567 13.6428 0.838013 13.2714 0.838013ZM11.1755 5.73493C10.989 5.73915 10.8035 5.70606 10.63 5.63762C10.4564 5.56917 10.2983 5.46674 10.1649 5.33634C10.0315 5.20594 9.92545 5.05021 9.85305 4.87827C9.78066 4.70634 9.74334 4.52167 9.74329 4.33512C9.74325 4.14857 9.78047 3.96388 9.85278 3.79191C9.92509 3.61994 10.031 3.46415 10.1644 3.33369C10.2977 3.20322 10.4558 3.10071 10.6293 3.03218C10.8028 2.96365 10.9883 2.93047 11.1748 2.93459C11.5407 2.94268 11.8889 3.09371 12.1449 3.35533C12.4009 3.61696 12.5442 3.9684 12.5443 4.33442C12.5444 4.70044 12.4012 5.05195 12.1454 5.3137C11.8895 5.57546 11.5414 5.72666 11.1755 5.73493Z" fill="#40464C"/>
</svg>
