<svg width="40" height="40" viewBox="0 0 40 40" fill="none" xmlns="http://www.w3.org/2000/svg">
<path d="M35.059 0C33.7818 0 32.5264 0.500626 31.5631 1.46183L15.0253 17.9391L14.658 18.3062L14.5578 18.8285L13.4059 24.6692L12.8883 27.1189L15.3375 26.6016L21.1806 25.4501L21.7032 25.35L22.0705 24.9829L38.5548 8.45223C39.2452 7.75972 39.7151 6.87845 39.9054 5.91947C40.0956 4.96048 39.9976 3.96667 39.6238 3.06324C39.25 2.15981 38.6171 1.38716 37.8047 0.842643C36.9924 0.298126 36.037 0.00609354 35.059 0.00333726V0ZM35.059 3.23738C35.4513 3.23738 35.8336 3.43763 36.2076 3.80976C36.9521 4.55403 36.9521 5.35836 36.2076 6.1043L20.0337 22.2678L17.1622 22.8419L17.7382 19.9716L33.912 3.80476C34.2843 3.43262 34.6666 3.23237 35.059 3.23237V3.23738ZM0 6.62495V40H33.3895V17.9925L30.0505 21.33V36.6625H3.33895V9.96245H18.6781L22.017 6.62495H0Z" fill="#1ACED6"/>
</svg>
