<?xml version="1.0" standalone="no"?>
<!DOCTYPE svg PUBLIC "-//W3C//DTD SVG 20010904//EN"
 "http://www.w3.org/TR/2001/REC-SVG-20010904/DTD/svg10.dtd">
<svg version="1.0" xmlns="http://www.w3.org/2000/svg"
 width="501.000000pt" height="501.000000pt" viewBox="0 0 501.000000 501.000000"
 preserveAspectRatio="xMidYMid meet">
<metadata>
Created by potrace 1.14, written by Peter Selinger 2001-2017
</metadata>
<g transform="translate(0.000000,501.000000) scale(0.100000,-0.100000)"
fill="#000000" stroke="none">
<path d="M2149 4859 c-95 -67 -101 -72 -188 -161 -99 -101 -101 -104 -127
-143 -10 -17 -21 -32 -24 -35 -14 -13 -90 -141 -115 -195 -23 -50 -52 -154
-71 -253 -7 -36 -26 -35 -95 4 -84 48 -249 101 -335 109 -94 8 -315 11 -319 4
-2 -3 -26 -6 -52 -6 -51 -2 -125 -16 -164 -32 -40 -17 -60 -37 -66 -67 -7 -37
-6 -290 1 -372 6 -64 52 -269 65 -287 4 -5 14 -29 21 -53 7 -24 35 -81 60
-127 26 -46 44 -87 41 -92 -3 -5 -35 -20 -71 -32 -245 -88 -471 -254 -630
-461 -19 -25 -38 -47 -41 -50 -10 -8 -23 -54 -20 -73 8 -55 80 -141 246 -291
43 -39 189 -146 199 -146 4 0 23 -10 44 -23 42 -26 147 -70 168 -70 8 0 14 -5
14 -10 0 -6 3 -7 6 -4 4 3 15 2 25 -4 10 -5 32 -11 49 -13 17 -2 33 -5 35 -7
2 -2 -17 -37 -41 -78 -25 -40 -59 -108 -75 -150 -16 -42 -34 -85 -40 -96 -5
-11 -11 -29 -13 -40 -3 -11 -9 -40 -16 -65 -25 -102 -32 -175 -32 -362 -1
-183 6 -214 51 -241 76 -44 514 -50 666 -8 92 26 204 73 255 107 19 13 38 24
41 24 4 0 12 -30 18 -67 39 -225 143 -432 317 -629 44 -49 90 -99 104 -110 14
-12 36 -32 50 -44 47 -42 100 -70 130 -70 68 0 169 77 308 235 29 33 58 67 66
75 98 110 192 314 236 511 24 107 27 317 5 399 -7 28 -13 51 -13 53 0 16 -17
85 -23 93 -5 6 -10 19 -12 30 -2 10 -7 28 -11 39 -5 11 -24 63 -43 115 -48
130 -123 313 -134 324 -5 6 -9 24 -9 40 1 23 9 38 35 57 74 56 160 188 181
279 4 19 9 42 12 50 15 54 5 193 -17 240 -4 8 -8 31 -10 52 -2 35 -1 36 51 56
52 19 103 46 193 99 22 13 52 28 68 34 15 6 27 14 27 19 0 4 14 13 30 20 17 7
30 16 30 21 0 5 5 9 11 9 6 0 29 13 52 29 73 50 151 96 194 116 24 11 43 24
43 28 0 5 3 6 8 4 4 -3 24 3 45 13 31 16 101 40 162 56 159 43 418 52 598 20
88 -16 113 -24 139 -47 25 -23 31 -36 30 -65 -1 -20 -9 -45 -18 -55 -16 -18
-78 -36 -99 -30 -5 2 -23 5 -40 7 -16 3 -57 9 -90 14 -117 18 -321 11 -435
-15 -14 -3 -36 -8 -50 -11 -13 -3 -31 -11 -39 -17 -8 -7 -16 -10 -18 -8 -16
15 -226 -89 -304 -151 -82 -65 -170 -174 -196 -244 -22 -57 -26 -69 -31 -84
-2 -8 -6 -197 -7 -420 -2 -223 -4 -410 -4 -416 -1 -7 -31 -40 -67 -75 -108
-105 -127 -180 -66 -257 40 -50 65 -59 177 -61 77 -2 121 -8 180 -25 62 -17
122 -66 109 -88 -3 -4 -1 -8 5 -8 9 0 6 -44 -5 -62 -6 -10 -85 -32 -104 -29
-8 1 -22 5 -30 8 -8 4 -18 7 -22 8 -5 2 -9 4 -10 5 -2 2 -68 4 -148 5 -164 3
-187 -5 -215 -71 -12 -29 -12 -39 0 -67 7 -17 26 -42 41 -55 27 -21 35 -22
245 -22 214 0 216 0 244 -24 51 -44 30 -110 -44 -142 -25 -10 -79 -14 -205
-14 -229 0 -267 -12 -271 -88 -4 -58 18 -88 88 -122 41 -20 70 -42 85 -65 27
-42 27 -50 3 -84 -41 -57 -39 -108 5 -160 22 -26 33 -31 69 -31 63 0 200 38
310 86 22 10 45 19 52 20 51 10 343 170 404 222 8 7 44 34 80 61 37 26 75 55
85 64 51 43 244 237 276 277 20 25 45 55 56 68 11 13 38 49 59 80 21 31 41 59
44 62 8 7 99 147 99 153 0 3 16 33 34 66 19 34 32 61 29 61 -3 0 1 8 9 17 19
22 86 188 123 303 14 47 29 92 32 100 8 19 7 17 16 60 9 43 15 73 23 102 9 39
15 72 20 105 2 18 7 50 10 70 9 52 10 547 1 608 -12 82 -31 177 -52 258 -3 9
-7 25 -9 35 -6 26 -56 174 -66 197 -5 11 -12 31 -15 45 -6 23 -129 276 -158
325 -115 198 -207 316 -377 485 -109 110 -312 280 -333 280 -3 0 -42 25 -87
55 -88 60 -362 198 -420 211 -87 21 -132 2 -171 -71 -12 -23 -14 -40 -7 -72 8
-39 21 -54 95 -113 7 -6 21 -10 33 -10 11 0 20 -3 20 -7 0 -9 48 -33 66 -33 7
0 14 -3 16 -7 2 -5 43 -28 91 -51 61 -30 91 -51 97 -68 9 -23 5 -128 -6 -146
-3 -4 -8 -20 -10 -35 -8 -45 -70 -214 -105 -288 -53 -111 -154 -257 -239 -345
-62 -63 -321 -250 -347 -250 -3 0 -14 -6 -22 -14 -18 -15 -256 -137 -311 -158
-74 -29 -80 -11 -30 96 16 37 30 69 30 72 0 2 16 42 36 87 20 45 43 97 51 115
19 44 55 143 58 162 1 8 5 22 8 30 16 41 38 132 33 137 -3 4 0 13 7 21 25 31
14 316 -18 437 -1 6 -3 13 -4 17 -20 87 -118 276 -197 379 -87 114 -291 309
-323 309 -5 0 -11 5 -13 11 -2 6 -22 14 -44 18 -36 7 -46 4 -95 -30z m127
-327 c34 -33 97 -109 139 -166 16 -23 32 -43 35 -46 3 -3 13 -18 22 -35 109
-192 139 -396 84 -579 -8 -25 -12 -46 -11 -46 4 0 -35 -109 -65 -185 -6 -16
-12 -32 -12 -35 -1 -3 -14 -34 -30 -69 -16 -36 -35 -79 -42 -95 -7 -17 -19
-44 -26 -61 -7 -16 -14 -34 -16 -40 -18 -74 -61 -109 -125 -103 -42 4 -69 42
-98 139 -12 38 -27 82 -33 97 -6 15 -12 30 -13 35 -2 4 -4 9 -5 12 -1 3 -3 8
-4 13 -1 4 -10 24 -19 46 -9 21 -17 41 -17 44 0 33 -136 294 -163 313 -11 8
-13 167 -3 229 18 113 61 215 139 330 80 116 188 225 228 229 3 1 19 -12 35
-27z m-1131 -613 c225 -29 422 -144 530 -312 25 -37 58 -97 60 -107 1 -3 9
-22 18 -44 9 -21 17 -44 17 -50 0 -7 5 -17 12 -24 7 -7 8 -12 4 -12 -5 0 -4
-6 2 -13 6 -7 13 -24 16 -37 3 -14 24 -77 45 -140 60 -173 66 -202 47 -239
-15 -28 -61 -61 -85 -61 -6 0 -44 15 -83 34 -100 48 -224 101 -343 148 -101
40 -205 91 -239 118 -80 63 -152 156 -192 248 -14 31 -30 66 -34 77 -18 40
-39 128 -34 137 3 5 1 14 -4 21 -5 7 -9 19 -10 27 0 14 -7 80 -16 155 -4 36
11 73 33 78 32 8 178 6 256 -4z m-48 -1054 c82 -17 180 -46 248 -73 195 -78
335 -153 358 -192 19 -31 12 -97 -11 -123 -21 -23 -286 -153 -304 -149 -5 1
-8 -3 -8 -10 0 -6 -3 -9 -6 -6 -3 4 -30 -5 -60 -18 -30 -13 -57 -24 -62 -25
-4 -1 -11 -3 -17 -5 -5 -2 -50 -13 -98 -24 -104 -24 -219 -26 -302 -5 -33 9
-69 17 -80 20 -69 17 -252 136 -345 225 -41 39 -48 52 -44 75 6 31 9 35 90
102 150 124 265 186 399 216 45 10 178 6 242 -8z m1271 -64 c68 -25 122 -66
136 -103 6 -15 14 -28 18 -28 4 0 8 -8 8 -18 0 -10 5 -23 11 -29 6 -6 11 -40
11 -75 1 -166 -127 -292 -297 -291 -56 0 -80 5 -120 27 -114 61 -146 111 -153
238 -4 79 -2 93 22 141 26 55 80 106 145 138 49 25 151 25 219 0z m2259 -68
c13 -15 24 -37 25 -48 1 -11 2 -29 3 -40 2 -22 -17 -64 -43 -98 -39 -50 -223
-227 -236 -227 -8 0 -16 -3 -18 -7 -4 -10 -116 -62 -148 -69 -113 -26 -227
-31 -295 -13 -22 5 -49 11 -60 13 -56 8 -183 65 -205 91 -7 8 -17 15 -22 15
-5 0 -16 7 -25 15 -14 14 -18 14 -42 -2 -84 -55 -133 -57 -168 -4 -45 66 -24
119 92 236 105 106 126 120 157 104 12 -7 36 -25 51 -41 35 -35 154 -92 226
-108 78 -18 210 -8 293 24 77 28 109 50 192 124 73 66 88 73 151 67 40 -3 55
-10 72 -32z m-2775 -553 c41 -31 61 -93 48 -143 -12 -44 -45 -144 -63 -187 -6
-14 -11 -27 -12 -30 -1 -3 -5 -14 -9 -25 -17 -45 -19 -50 -21 -57 -2 -5 -4
-10 -5 -13 -1 -3 -3 -8 -4 -12 -1 -5 -12 -30 -24 -57 -12 -27 -22 -52 -22 -57
0 -5 -5 -9 -11 -9 -5 0 -8 -4 -5 -8 8 -13 -118 -175 -172 -222 -100 -89 -273
-167 -410 -185 -26 -4 -54 -9 -62 -12 -13 -4 -135 -7 -142 -3 -2 1 -12 3 -22
5 -68 13 -65 9 -60 84 2 37 6 83 9 102 3 19 8 53 10 76 6 53 79 279 96 293 3
3 21 28 39 55 43 63 120 136 174 165 108 58 158 81 276 125 98 36 136 52 234
97 94 42 124 46 158 18z m451 -207 c18 -17 43 -60 57 -95 13 -34 33 -83 44
-108 11 -25 21 -51 22 -58 1 -7 19 -55 39 -105 55 -138 102 -285 111 -347 20
-154 -5 -301 -78 -450 -18 -36 -35 -67 -38 -70 -3 -3 -22 -30 -43 -60 -20 -30
-47 -67 -59 -82 -13 -14 -38 -45 -57 -68 -36 -44 -74 -65 -96 -53 -21 12 -175
206 -175 220 0 7 -4 13 -10 13 -5 0 -32 46 -59 103 -70 142 -93 237 -93 377
-1 111 1 117 47 186 25 36 45 68 45 70 0 2 15 35 34 74 19 39 40 87 47 108 6
20 15 42 19 47 4 6 26 63 49 128 22 65 48 133 56 150 28 60 89 69 138 20z"/>
</g>
</svg>
