<?xml version="1.0" standalone="no"?>
<!DOCTYPE svg PUBLIC "-//W3C//DTD SVG 20010904//EN"
 "http://www.w3.org/TR/2001/REC-SVG-20010904/DTD/svg10.dtd">
<svg version="1.0" xmlns="http://www.w3.org/2000/svg"
 width="501.000000pt" height="501.000000pt" viewBox="0 0 501.000000 501.000000"
 preserveAspectRatio="xMidYMid meet">
<metadata>
Created by potrace 1.14, written by Peter Selinger 2001-2017
</metadata>
<g transform="translate(0.000000,501.000000) scale(0.100000,-0.100000)"
fill="#000000" stroke="none">
<path d="M2161 4863 c-59 -32 -193 -151 -268 -238 -143 -166 -232 -341 -272
-536 l-12 -57 -69 38 c-73 40 -141 66 -250 96 -95 26 -430 26 -550 1 -97 -21
-126 -37 -141 -75 -7 -17 -9 -100 -6 -232 7 -275 36 -399 147 -620 l48 -95
-62 -19 c-91 -29 -271 -124 -361 -190 -144 -108 -345 -330 -345 -384 0 -44 52
-115 165 -227 171 -170 308 -258 505 -326 52 -17 98 -35 103 -39 4 -4 -13 -40
-38 -82 -51 -86 -115 -249 -140 -358 -21 -91 -33 -489 -16 -532 16 -42 48 -56
166 -74 83 -12 153 -15 280 -11 205 6 318 31 466 105 l97 48 6 -46 c20 -150
110 -362 218 -515 72 -102 239 -275 313 -324 41 -27 57 -32 89 -28 53 7 133
65 238 172 260 265 377 530 378 852 0 228 -23 308 -253 875 -10 25 -6 31 60
95 150 148 208 365 148 557 -8 27 -15 53 -15 58 0 5 33 23 73 42 93 42 261
139 407 234 265 174 486 244 775 245 156 1 311 -20 367 -49 65 -34 73 -104 16
-147 -26 -20 -32 -20 -105 -8 -118 19 -345 25 -447 12 -278 -37 -546 -191
-660 -380 -72 -118 -70 -101 -76 -572 l-5 -427 -77 -80 c-101 -106 -112 -160
-52 -240 38 -49 67 -59 194 -64 141 -6 221 -33 257 -87 28 -41 29 -62 5 -91
-24 -30 -88 -37 -145 -15 -35 13 -70 16 -180 13 -128 -3 -137 -4 -162 -28 -55
-51 -53 -115 6 -165 l31 -25 218 0 218 0 26 -31 c31 -37 33 -58 5 -93 -40 -51
-63 -56 -259 -56 -234 0 -270 -14 -270 -102 0 -47 22 -74 90 -108 93 -47 122
-101 85 -156 -30 -45 -32 -86 -4 -130 38 -62 75 -67 211 -30 397 110 775 354
1062 686 387 447 586 980 586 1570 0 292 -25 453 -111 715 -170 512 -500 943
-949 1237 -182 119 -457 248 -530 248 -70 0 -129 -73 -116 -144 11 -59 41 -83
216 -171 191 -97 213 -116 204 -179 -18 -125 -83 -324 -144 -446 -131 -258
-335 -442 -706 -637 -108 -56 -229 -106 -249 -101 -8 2 10 55 52 153 140 328
185 467 204 628 39 330 -88 659 -352 918 -119 118 -233 199 -278 199 -5 0 -32
-12 -60 -27z m137 -360 c123 -131 203 -256 248 -388 24 -70 28 -95 28 -205 0
-105 -4 -140 -26 -222 -48 -171 -213 -570 -249 -600 -12 -10 -37 -18 -56 -18
-45 0 -74 32 -97 107 -27 89 -115 319 -152 401 -19 41 -54 106 -79 146 -44 71
-45 75 -45 153 0 182 56 334 185 504 69 91 156 179 177 179 7 0 37 -26 66 -57z
m-1063 -602 c237 -61 419 -214 508 -427 32 -77 152 -430 160 -470 7 -36 -18
-84 -58 -110 -30 -19 -11 -25 -238 75 -75 33 -186 79 -244 102 -59 23 -132 57
-163 76 -167 100 -277 286 -320 539 -32 184 -27 223 25 237 42 12 251 -2 330
-22z m-107 -1041 c112 -27 253 -80 399 -151 145 -71 183 -102 183 -152 0 -69
-11 -81 -137 -145 -238 -121 -458 -192 -598 -192 -185 0 -394 96 -557 257 -65
62 -64 85 5 150 72 68 202 157 283 194 133 61 277 74 422 39z m1234 -60 c71
-26 118 -67 153 -131 75 -138 9 -323 -139 -390 -47 -21 -162 -24 -213 -6 -61
23 -121 74 -148 126 -85 168 -7 352 175 414 35 12 123 6 172 -13z m2223 -44
c44 -19 69 -66 62 -118 -6 -46 -55 -114 -155 -215 -135 -136 -279 -198 -462
-197 -156 0 -287 41 -409 129 l-48 35 -19 -21 c-24 -26 -67 -49 -93 -49 -12 0
-35 13 -53 29 -27 24 -33 36 -32 68 2 52 34 101 131 194 108 105 108 105 163
59 106 -88 221 -130 360 -130 139 0 264 50 373 150 88 80 119 92 182 66z
m-2726 -595 c21 -21 40 -50 43 -65 6 -31 -52 -212 -131 -404 -123 -304 -341
-477 -660 -523 -79 -11 -218 -8 -241 6 -28 17 3 265 50 408 77 231 195 344
472 452 68 26 184 74 258 106 74 32 143 58 153 59 9 0 34 -17 56 -39z m434
-182 c15 -11 40 -48 56 -82 28 -61 130 -327 191 -501 88 -253 25 -536 -175
-786 -77 -96 -124 -142 -143 -138 -9 2 -45 37 -80 78 -177 209 -256 384 -269
596 -7 126 -1 160 42 223 59 86 138 266 230 524 15 44 36 84 48 92 30 21 70
19 100 -6z"/>
</g>
</svg>
